<?xml version="1.0" encoding="UTF-8" standalone="no"?>
<!DOCTYPE svg PUBLIC "-//W3C//DTD SVG 1.1//EN" "http://www.w3.org/Graphics/SVG/1.1/DTD/svg11.dtd">
<svg width="100%" height="100%" viewBox="0 0 60 60" version="1.1" xmlns="http://www.w3.org/2000/svg" xmlns:xlink="http://www.w3.org/1999/xlink" xml:space="preserve" xmlns:serif="http://www.serif.com/" style="fill-rule:evenodd;clip-rule:evenodd;stroke-linejoin:round;stroke-miterlimit:2;">
    <g transform="matrix(0.523466,0,0,0.523466,-4.382513,-3.419825)">
        <circle cx="65.682" cy="63.843" r="55.785" style="fill:rgb(255,143,0);"/>
    </g>
    <g transform="matrix(0.554049,0,0,0.554049,-5.120841,-4.265198)">
        <path d="M107.036,64L74.205,76.387C74.205,76.387 71.889,89.738 51.591,87.013C31.293,84.288 36.879,74.344 33.064,72.164C29.25,69.985 30.885,71.074 30.885,71.074C30.885,71.074 29.114,77.613 26.117,76.387C23.12,75.161 19.169,73.39 17.807,66.715C16.445,60.04 16.581,50.231 16.581,50.231L18.216,46.69C18.216,46.69 21.894,42.058 48.867,38.788L69.982,44.51C69.982,44.51 72.73,47.507 64,46.553C55.27,45.6 59.629,41.922 47.096,42.058C34.563,42.194 20.804,51.594 20.804,51.594C20.804,51.594 17.262,56.926 32.792,64C48.322,71.074 73.115,69.031 73.115,69.031L79.927,69.44L110.851,60.449L112.213,64L107.036,64Z" style="fill:rgb(255,34,30);"/>
    </g>
    <g transform="matrix(0.554049,0,0,0.554049,-6.23512,-5.638121)">
        <path d="M107.036,64L74.205,76.387C74.205,76.387 71.889,89.738 51.591,87.013C31.293,84.288 36.879,74.344 33.064,72.164C29.25,69.985 30.885,71.074 30.885,71.074C30.885,71.074 29.114,77.613 26.117,76.387C23.12,75.161 19.169,73.39 17.807,66.715C16.445,60.04 16.581,50.231 16.581,50.231L18.216,46.69C18.216,46.69 21.894,42.058 48.867,38.788L69.982,44.51C69.982,44.51 72.73,47.507 64,46.553C55.27,45.6 59.629,41.922 47.096,42.058C34.563,42.194 20.804,51.594 20.804,51.594C20.804,51.594 17.262,56.926 32.792,64C48.322,71.074 73.115,69.031 73.115,69.031L79.927,69.44L110.851,60.449L112.213,64L107.036,64Z" style="fill:rgb(255,102,30);"/>
    </g>
</svg>
